<svg xmlns="http://www.w3.org/2000/svg" xmlns:xlink="http://www.w3.org/1999/xlink" width="220" zoomAndPan="magnify" viewBox="0 0 165 82.499998" height="110" preserveAspectRatio="xMidYMid meet" version="1.0"><defs><clipPath id="ea3e325b50"><path d="M 0.496094 0 L 164.503906 0 L 164.503906 82.003906 L 0.496094 82.003906 Z M 0.496094 0 " clip-rule="nonzero"/></clipPath><clipPath id="e024614bfe"><path d="M 8.699219 34 L 11 34 L 11 43 L 8.699219 43 Z M 8.699219 34 " clip-rule="nonzero"/></clipPath><clipPath id="f77ff16146"><path d="M 20 26.761719 L 23 26.761719 L 23 34 L 20 34 Z M 20 26.761719 " clip-rule="nonzero"/></clipPath><clipPath id="89dab724fd"><path d="M 24 26.761719 L 27 26.761719 L 27 34 L 24 34 Z M 24 26.761719 " clip-rule="nonzero"/></clipPath><clipPath id="5c2a1c0674"><path d="M 108 49 L 113 49 L 113 55.089844 L 108 55.089844 Z M 108 49 " clip-rule="nonzero"/></clipPath><clipPath id="a5639cdf43"><path d="M 144 32 L 156.300781 32 L 156.300781 48 L 144 48 Z M 144 32 " clip-rule="nonzero"/></clipPath></defs><g clip-path="url(#ea3e325b50)"><path fill="#ffffff" d="M 0.496094 0 L 164.503906 0 L 164.503906 82.003906 L 0.496094 82.003906 Z M 0.496094 0 " fill-opacity="1" fill-rule="nonzero"/></g><g clip-path="url(#e024614bfe)"><path fill="#136ef8" d="M 9.855469 42.585938 C 9.59375 42.585938 9.367188 42.492188 9.179688 42.304688 C 8.992188 42.117188 8.898438 41.894531 8.898438 41.628906 L 8.898438 35.191406 C 8.898438 34.929688 8.992188 34.703125 9.179688 34.515625 C 9.367188 34.332031 9.59375 34.238281 9.855469 34.238281 C 10.121094 34.238281 10.347656 34.332031 10.535156 34.515625 C 10.722656 34.703125 10.816406 34.929688 10.816406 35.191406 L 10.816406 41.628906 C 10.816406 41.894531 10.722656 42.117188 10.535156 42.304688 C 10.347656 42.492188 10.121094 42.585938 9.855469 42.585938 Z M 9.855469 42.585938 " fill-opacity="1" fill-rule="nonzero"/></g><path fill="#136ef8" d="M 13.726562 46.191406 C 13.460938 46.191406 13.234375 46.097656 13.046875 45.910156 C 12.859375 45.726562 12.765625 45.5 12.765625 45.238281 L 12.765625 31.199219 C 12.765625 30.9375 12.859375 30.710938 13.046875 30.527344 C 13.234375 30.339844 13.460938 30.246094 13.726562 30.246094 C 13.992188 30.246094 14.21875 30.339844 14.402344 30.527344 C 14.589844 30.710938 14.683594 30.9375 14.683594 31.199219 L 14.683594 45.238281 C 14.683594 45.5 14.589844 45.726562 14.402344 45.910156 C 14.21875 46.097656 13.992188 46.191406 13.726562 46.191406 Z M 13.726562 46.191406 " fill-opacity="1" fill-rule="nonzero"/><path fill="#136ef8" d="M 17.550781 36.640625 C 17.285156 36.640625 17.058594 36.546875 16.875 36.363281 C 16.6875 36.175781 16.59375 35.949219 16.59375 35.6875 L 16.59375 28.832031 C 16.59375 28.570312 16.6875 28.34375 16.875 28.15625 C 17.058594 27.972656 17.285156 27.878906 17.550781 27.878906 C 17.816406 27.878906 18.042969 27.972656 18.230469 28.15625 C 18.417969 28.34375 18.511719 28.570312 18.511719 28.832031 L 18.511719 35.6875 C 18.511719 35.949219 18.417969 36.175781 18.230469 36.363281 C 18.042969 36.546875 17.816406 36.640625 17.550781 36.640625 Z M 17.550781 36.640625 " fill-opacity="1" fill-rule="nonzero"/><path fill="#136ef8" d="M 17.550781 48.558594 C 17.285156 48.558594 17.058594 48.464844 16.875 48.28125 C 16.6875 48.09375 16.59375 47.867188 16.59375 47.605469 L 16.59375 40.988281 C 16.59375 40.722656 16.6875 40.5 16.875 40.3125 C 17.058594 40.125 17.285156 40.03125 17.550781 40.03125 C 17.816406 40.03125 18.042969 40.125 18.230469 40.3125 C 18.417969 40.5 18.511719 40.722656 18.511719 40.988281 L 18.511719 47.605469 C 18.511719 47.867188 18.417969 48.09375 18.230469 48.28125 C 18.042969 48.464844 17.816406 48.558594 17.550781 48.558594 Z M 17.550781 48.558594 " fill-opacity="1" fill-rule="nonzero"/><path fill="#136ef8" d="M 36.734375 42.585938 C 36.46875 42.585938 36.242188 42.492188 36.058594 42.304688 C 35.871094 42.117188 35.777344 41.894531 35.777344 41.628906 L 35.777344 35.191406 C 35.777344 34.929688 35.871094 34.703125 36.058594 34.515625 C 36.242188 34.332031 36.46875 34.238281 36.734375 34.238281 C 37 34.238281 37.226562 34.332031 37.414062 34.515625 C 37.601562 34.703125 37.695312 34.929688 37.695312 35.191406 L 37.695312 41.628906 C 37.695312 41.894531 37.601562 42.117188 37.414062 42.304688 C 37.226562 42.492188 37 42.585938 36.734375 42.585938 Z M 36.734375 42.585938 " fill-opacity="1" fill-rule="nonzero"/><path fill="#136ef8" d="M 32.910156 46.195312 C 32.644531 46.195312 32.417969 46.101562 32.230469 45.914062 C 32.042969 45.726562 31.949219 45.503906 31.949219 45.238281 L 31.949219 31.199219 C 31.949219 30.9375 32.042969 30.710938 32.230469 30.527344 C 32.417969 30.339844 32.644531 30.246094 32.910156 30.246094 C 33.175781 30.246094 33.402344 30.339844 33.589844 30.527344 C 33.777344 30.710938 33.871094 30.9375 33.871094 31.199219 L 33.871094 45.238281 C 33.871094 45.503906 33.777344 45.726562 33.589844 45.914062 C 33.402344 46.101562 33.175781 46.195312 32.910156 46.195312 Z M 32.910156 46.195312 " fill-opacity="1" fill-rule="nonzero"/><path fill="#136ef8" d="M 29.070312 36.640625 C 28.804688 36.640625 28.578125 36.546875 28.390625 36.363281 C 28.203125 36.175781 28.109375 35.949219 28.109375 35.6875 L 28.109375 28.832031 C 28.109375 28.570312 28.203125 28.34375 28.390625 28.15625 C 28.578125 27.972656 28.804688 27.878906 29.070312 27.878906 C 29.335938 27.878906 29.5625 27.972656 29.75 28.15625 C 29.9375 28.34375 30.03125 28.570312 30.03125 28.832031 L 30.03125 35.6875 C 30.03125 35.949219 29.9375 36.175781 29.75 36.363281 C 29.5625 36.546875 29.335938 36.640625 29.070312 36.640625 Z M 29.070312 36.640625 " fill-opacity="1" fill-rule="nonzero"/><path fill="#136ef8" d="M 29.070312 48.558594 C 28.804688 48.558594 28.578125 48.464844 28.390625 48.28125 C 28.203125 48.09375 28.109375 47.867188 28.109375 47.605469 L 28.109375 40.988281 C 28.109375 40.722656 28.203125 40.5 28.390625 40.3125 C 28.578125 40.125 28.804688 40.03125 29.070312 40.03125 C 29.335938 40.03125 29.5625 40.125 29.75 40.3125 C 29.9375 40.5 30.03125 40.722656 30.03125 40.988281 L 30.03125 47.605469 C 30.03125 47.867188 29.9375 48.09375 29.75 48.28125 C 29.5625 48.464844 29.335938 48.558594 29.070312 48.558594 Z M 29.070312 48.558594 " fill-opacity="1" fill-rule="nonzero"/><g clip-path="url(#f77ff16146)"><path fill="#136ef8" d="M 21.390625 33.769531 C 21.125 33.769531 20.898438 33.679688 20.710938 33.492188 C 20.527344 33.304688 20.433594 33.078125 20.433594 32.816406 L 20.433594 27.714844 C 20.433594 27.453125 20.527344 27.226562 20.710938 27.039062 C 20.898438 26.855469 21.125 26.761719 21.390625 26.761719 C 21.65625 26.761719 21.882812 26.855469 22.070312 27.039062 C 22.257812 27.226562 22.351562 27.453125 22.351562 27.714844 L 22.351562 32.816406 C 22.351562 33.078125 22.257812 33.304688 22.070312 33.492188 C 21.882812 33.679688 21.65625 33.769531 21.390625 33.769531 Z M 21.390625 33.769531 " fill-opacity="1" fill-rule="nonzero"/></g><path fill="#136ef8" d="M 21.390625 49.675781 C 21.125 49.675781 20.898438 49.582031 20.710938 49.398438 C 20.527344 49.210938 20.433594 48.984375 20.433594 48.722656 L 20.433594 43.621094 C 20.433594 43.359375 20.527344 43.132812 20.710938 42.945312 C 20.898438 42.757812 21.125 42.667969 21.390625 42.667969 C 21.65625 42.667969 21.882812 42.757812 22.070312 42.945312 C 22.257812 43.132812 22.351562 43.359375 22.351562 43.621094 L 22.351562 48.722656 C 22.351562 48.984375 22.257812 49.210938 22.070312 49.398438 C 21.882812 49.582031 21.65625 49.675781 21.390625 49.675781 Z M 21.390625 49.675781 " fill-opacity="1" fill-rule="nonzero"/><g clip-path="url(#89dab724fd)"><path fill="#136ef8" d="M 25.230469 33.769531 C 24.964844 33.769531 24.738281 33.679688 24.550781 33.492188 C 24.363281 33.304688 24.269531 33.078125 24.269531 32.816406 L 24.269531 27.714844 C 24.269531 27.453125 24.363281 27.226562 24.550781 27.039062 C 24.738281 26.855469 24.964844 26.761719 25.230469 26.761719 C 25.496094 26.761719 25.722656 26.855469 25.910156 27.039062 C 26.097656 27.226562 26.191406 27.453125 26.191406 27.714844 L 26.191406 32.816406 C 26.191406 33.078125 26.097656 33.304688 25.910156 33.492188 C 25.722656 33.679688 25.496094 33.769531 25.230469 33.769531 Z M 25.230469 33.769531 " fill-opacity="1" fill-rule="nonzero"/></g><path fill="#136ef8" d="M 25.230469 49.675781 C 24.964844 49.675781 24.738281 49.582031 24.550781 49.398438 C 24.363281 49.210938 24.269531 48.984375 24.269531 48.722656 L 24.269531 43.621094 C 24.269531 43.359375 24.363281 43.132812 24.550781 42.945312 C 24.738281 42.757812 24.964844 42.667969 25.230469 42.667969 C 25.496094 42.667969 25.722656 42.757812 25.910156 42.945312 C 26.097656 43.132812 26.191406 43.359375 26.191406 43.621094 L 26.191406 48.722656 C 26.191406 48.984375 26.097656 49.210938 25.910156 49.398438 C 25.722656 49.582031 25.496094 49.675781 25.230469 49.675781 Z M 25.230469 49.675781 " fill-opacity="1" fill-rule="nonzero"/><path fill="#0053cc" d="M 46.355469 48.632812 L 45.519531 48.632812 L 45.519531 49.714844 L 44.890625 49.714844 L 44.890625 50.386719 L 45.519531 50.386719 L 45.519531 52.59375 C 45.496094 52.914062 45.597656 53.1875 45.824219 53.414062 C 46.066406 53.613281 46.34375 53.707031 46.660156 53.691406 C 46.769531 53.691406 46.878906 53.679688 46.988281 53.660156 C 47.097656 53.640625 47.203125 53.609375 47.300781 53.566406 L 47.300781 52.847656 C 47.230469 52.890625 47.15625 52.917969 47.078125 52.9375 C 46.992188 52.960938 46.902344 52.972656 46.816406 52.972656 C 46.671875 52.992188 46.550781 52.945312 46.453125 52.835938 C 46.378906 52.710938 46.347656 52.578125 46.355469 52.433594 L 46.355469 50.386719 L 47.292969 50.386719 L 47.292969 49.714844 L 46.347656 49.714844 Z M 46.355469 48.632812 " fill-opacity="1" fill-rule="nonzero"/><path fill="#0053cc" d="M 50.6875 49.789062 C 50.4375 49.675781 50.175781 49.625 49.902344 49.632812 C 49.65625 49.632812 49.417969 49.675781 49.1875 49.757812 C 49.035156 49.808594 48.894531 49.871094 48.753906 49.949219 L 48.753906 48.074219 L 47.941406 48.074219 L 47.941406 53.585938 L 48.746094 53.585938 L 48.746094 50.578125 C 48.886719 50.496094 49.039062 50.433594 49.195312 50.386719 C 49.347656 50.339844 49.503906 50.316406 49.660156 50.316406 C 49.921875 50.296875 50.144531 50.378906 50.332031 50.5625 C 50.5 50.773438 50.574219 51.011719 50.554688 51.28125 L 50.554688 53.574219 L 51.371094 53.574219 L 51.371094 51.1875 C 51.378906 50.875 51.316406 50.574219 51.179688 50.289062 C 51.070312 50.070312 50.90625 49.902344 50.6875 49.789062 Z M 50.6875 49.789062 " fill-opacity="1" fill-rule="nonzero"/><path fill="#0053cc" d="M 55.402344 50.675781 C 55.296875 50.359375 55.109375 50.097656 54.839844 49.898438 C 54.464844 49.675781 54.058594 49.585938 53.625 49.632812 C 53.191406 49.675781 52.8125 49.847656 52.492188 50.144531 C 52.171875 50.492188 52.015625 51 52.015625 51.671875 C 52.003906 52.058594 52.078125 52.429688 52.242188 52.78125 C 52.386719 53.078125 52.605469 53.308594 52.894531 53.46875 C 53.207031 53.632812 53.539062 53.710938 53.890625 53.699219 C 54.148438 53.703125 54.40625 53.679688 54.660156 53.628906 C 54.871094 53.582031 55.074219 53.519531 55.273438 53.4375 L 55.273438 52.695312 C 55.164062 52.75 55.050781 52.796875 54.9375 52.835938 C 54.800781 52.890625 54.660156 52.929688 54.515625 52.957031 C 54.351562 52.988281 54.1875 53.003906 54.023438 53.003906 C 53.671875 53.027344 53.375 52.917969 53.128906 52.667969 C 52.9375 52.425781 52.839844 52.148438 52.835938 51.839844 L 55.570312 51.839844 C 55.582031 51.441406 55.523438 51.054688 55.402344 50.675781 Z M 53.273438 50.414062 C 53.433594 50.324219 53.613281 50.28125 53.800781 50.285156 C 54.082031 50.261719 54.316406 50.355469 54.507812 50.5625 C 54.648438 50.761719 54.726562 50.988281 54.738281 51.234375 L 52.863281 51.234375 C 52.878906 51.105469 52.90625 50.976562 52.949219 50.851562 C 53.003906 50.667969 53.109375 50.523438 53.273438 50.414062 Z M 53.273438 50.414062 " fill-opacity="1" fill-rule="nonzero"/><path fill="#0053cc" d="M 61.839844 52.652344 L 60.992188 49.714844 L 60.320312 49.714844 L 59.496094 52.636719 L 58.625 49.714844 L 57.757812 49.714844 L 59.054688 53.589844 L 59.820312 53.589844 L 60.652344 50.835938 L 61.492188 53.589844 L 62.257812 53.589844 L 63.5625 49.714844 L 62.726562 49.714844 Z M 61.839844 52.652344 " fill-opacity="1" fill-rule="nonzero"/><path fill="#0053cc" d="M 67.027344 50.675781 C 66.925781 50.355469 66.738281 50.097656 66.464844 49.898438 C 66.089844 49.675781 65.683594 49.585938 65.25 49.632812 C 64.816406 49.675781 64.4375 49.847656 64.117188 50.144531 C 63.800781 50.492188 63.640625 51 63.640625 51.671875 C 63.628906 52.058594 63.703125 52.429688 63.871094 52.78125 C 64.011719 53.082031 64.230469 53.308594 64.523438 53.46875 C 64.832031 53.632812 65.167969 53.710938 65.519531 53.699219 C 65.777344 53.703125 66.03125 53.679688 66.285156 53.628906 C 66.496094 53.582031 66.703125 53.519531 66.902344 53.4375 L 66.902344 52.695312 C 66.792969 52.75 66.679688 52.796875 66.566406 52.835938 C 66.429688 52.890625 66.289062 52.929688 66.140625 52.957031 C 65.980469 52.988281 65.816406 53.003906 65.652344 53.003906 C 65.300781 53.027344 65.003906 52.917969 64.757812 52.667969 C 64.5625 52.425781 64.464844 52.148438 64.464844 51.839844 L 67.195312 51.839844 C 67.207031 51.441406 67.152344 51.054688 67.027344 50.675781 Z M 64.898438 50.414062 C 65.0625 50.324219 65.238281 50.28125 65.425781 50.285156 C 65.707031 50.261719 65.941406 50.355469 66.132812 50.5625 C 66.273438 50.761719 66.351562 50.988281 66.363281 51.234375 L 64.480469 51.234375 C 64.496094 51.105469 64.523438 50.976562 64.566406 50.851562 C 64.625 50.667969 64.734375 50.519531 64.898438 50.414062 Z M 64.898438 50.414062 " fill-opacity="1" fill-rule="nonzero"/><path fill="#0053cc" d="M 69.632812 49.632812 C 69.5 49.632812 69.375 49.648438 69.246094 49.675781 C 69.09375 49.707031 68.945312 49.75 68.796875 49.800781 C 68.738281 49.820312 68.6875 49.84375 68.636719 49.867188 L 68.636719 48.164062 L 67.832031 48.164062 L 67.832031 52.824219 C 67.824219 52.988281 67.867188 53.132812 67.964844 53.265625 C 68.066406 53.386719 68.1875 53.476562 68.335938 53.53125 C 68.503906 53.601562 68.679688 53.644531 68.863281 53.667969 C 69.066406 53.695312 69.273438 53.707031 69.476562 53.707031 C 69.714844 53.707031 69.949219 53.675781 70.179688 53.613281 C 70.410156 53.550781 70.617188 53.445312 70.800781 53.292969 C 71 53.117188 71.148438 52.90625 71.242188 52.65625 C 71.363281 52.320312 71.421875 51.972656 71.410156 51.613281 C 71.410156 50.988281 71.261719 50.496094 70.96875 50.152344 C 70.671875 49.804688 70.222656 49.632812 69.632812 49.632812 Z M 70.476562 52.328125 C 70.417969 52.527344 70.304688 52.691406 70.136719 52.816406 C 69.921875 52.960938 69.6875 53.023438 69.429688 53.007812 C 69.304688 53.007812 69.183594 53 69.0625 52.984375 C 68.949219 52.96875 68.847656 52.929688 68.753906 52.871094 C 68.667969 52.8125 68.625 52.734375 68.628906 52.632812 L 68.628906 50.542969 C 68.769531 50.464844 68.914062 50.40625 69.070312 50.371094 C 69.210938 50.335938 69.359375 50.320312 69.507812 50.316406 C 69.722656 50.308594 69.921875 50.359375 70.105469 50.472656 C 70.269531 50.582031 70.386719 50.734375 70.453125 50.921875 C 70.539062 51.15625 70.578125 51.398438 70.570312 51.644531 C 70.574219 51.878906 70.542969 52.105469 70.476562 52.328125 Z M 70.476562 52.328125 " fill-opacity="1" fill-rule="nonzero"/><path fill="#0053cc" d="M 76.816406 50.042969 C 76.714844 49.941406 76.601562 49.863281 76.46875 49.804688 C 76.335938 49.746094 76.199219 49.699219 76.054688 49.671875 C 75.910156 49.644531 75.761719 49.628906 75.617188 49.632812 C 75.324219 49.628906 75.039062 49.660156 74.757812 49.71875 C 74.53125 49.757812 74.320312 49.835938 74.125 49.953125 L 74.125 50.71875 C 74.296875 50.582031 74.488281 50.484375 74.703125 50.425781 C 74.921875 50.359375 75.148438 50.324219 75.378906 50.324219 C 75.632812 50.308594 75.871094 50.371094 76.082031 50.511719 C 76.269531 50.671875 76.351562 50.871094 76.332031 51.113281 L 76.332031 51.480469 C 76.269531 51.441406 76.207031 51.40625 76.140625 51.378906 C 76 51.320312 75.859375 51.277344 75.714844 51.25 C 75.539062 51.21875 75.359375 51.203125 75.179688 51.203125 C 74.914062 51.195312 74.660156 51.242188 74.414062 51.34375 C 74.203125 51.429688 74.042969 51.570312 73.925781 51.761719 C 73.800781 51.980469 73.742188 52.21875 73.753906 52.46875 C 73.746094 52.683594 73.789062 52.886719 73.890625 53.074219 C 73.976562 53.234375 74.097656 53.363281 74.253906 53.457031 C 74.414062 53.550781 74.582031 53.613281 74.761719 53.648438 C 74.953125 53.6875 75.144531 53.707031 75.339844 53.707031 C 75.644531 53.707031 75.953125 53.683594 76.253906 53.632812 C 76.492188 53.597656 76.707031 53.503906 76.894531 53.355469 C 77.0625 53.199219 77.140625 53.007812 77.128906 52.78125 L 77.128906 50.929688 C 77.132812 50.753906 77.105469 50.585938 77.046875 50.417969 C 76.996094 50.277344 76.917969 50.152344 76.816406 50.042969 Z M 76.113281 53.011719 C 75.890625 53.0625 75.664062 53.082031 75.4375 53.074219 C 75.292969 53.074219 75.15625 53.050781 75.023438 53.007812 C 74.894531 52.964844 74.785156 52.898438 74.691406 52.800781 C 74.59375 52.691406 74.550781 52.5625 74.558594 52.417969 C 74.546875 52.21875 74.625 52.0625 74.789062 51.953125 C 74.996094 51.835938 75.222656 51.785156 75.460938 51.800781 C 75.671875 51.796875 75.878906 51.824219 76.082031 51.878906 C 76.167969 51.902344 76.25 51.933594 76.328125 51.964844 L 76.328125 52.730469 C 76.339844 52.886719 76.265625 52.980469 76.113281 53.011719 Z M 76.113281 53.011719 " fill-opacity="1" fill-rule="nonzero"/><path fill="#0053cc" d="M 79.820312 52.949219 C 79.382812 52.949219 79.066406 52.84375 78.871094 52.628906 C 78.679688 52.414062 78.585938 52.078125 78.589844 51.613281 C 78.589844 51.167969 78.691406 50.847656 78.894531 50.640625 C 79.15625 50.414062 79.460938 50.3125 79.808594 50.339844 C 79.996094 50.339844 80.179688 50.363281 80.359375 50.40625 C 80.539062 50.453125 80.71875 50.519531 80.886719 50.597656 L 80.886719 49.867188 C 80.703125 49.789062 80.511719 49.730469 80.3125 49.695312 C 80.105469 49.65625 79.898438 49.636719 79.6875 49.636719 C 79.449219 49.636719 79.210938 49.667969 78.980469 49.734375 C 78.75 49.800781 78.542969 49.914062 78.363281 50.070312 C 78.167969 50.246094 78.027344 50.457031 77.9375 50.699219 C 77.824219 51.019531 77.769531 51.34375 77.78125 51.683594 C 77.769531 52.011719 77.824219 52.328125 77.945312 52.636719 C 78.039062 52.875 78.1875 53.078125 78.382812 53.246094 C 78.566406 53.398438 78.769531 53.507812 79 53.574219 C 79.226562 53.640625 79.460938 53.675781 79.695312 53.675781 C 79.910156 53.675781 80.117188 53.65625 80.328125 53.613281 C 80.523438 53.570312 80.710938 53.507812 80.894531 53.421875 L 80.894531 52.695312 C 80.730469 52.773438 80.5625 52.832031 80.386719 52.878906 C 80.203125 52.925781 80.015625 52.953125 79.820312 52.949219 Z M 79.820312 52.949219 " fill-opacity="1" fill-rule="nonzero"/><path fill="#0053cc" d="M 83.359375 52.949219 C 82.917969 52.949219 82.601562 52.84375 82.398438 52.628906 C 82.199219 52.414062 82.105469 52.078125 82.109375 51.613281 C 82.109375 51.167969 82.210938 50.84375 82.414062 50.640625 C 82.675781 50.414062 82.980469 50.3125 83.328125 50.339844 C 83.515625 50.339844 83.699219 50.359375 83.878906 50.40625 C 84.058594 50.453125 84.234375 50.519531 84.40625 50.597656 L 84.40625 49.867188 C 84.222656 49.785156 84.03125 49.730469 83.832031 49.695312 C 83.625 49.65625 83.417969 49.636719 83.210938 49.636719 C 82.96875 49.636719 82.730469 49.667969 82.5 49.734375 C 82.269531 49.804688 82.0625 49.914062 81.882812 50.070312 C 81.6875 50.246094 81.546875 50.457031 81.457031 50.699219 C 81.34375 51.019531 81.289062 51.34375 81.300781 51.683594 C 81.289062 52.011719 81.34375 52.328125 81.464844 52.636719 C 81.558594 52.875 81.707031 53.078125 81.902344 53.246094 C 82.085938 53.398438 82.289062 53.507812 82.519531 53.574219 C 82.746094 53.640625 82.980469 53.675781 83.21875 53.675781 C 83.429688 53.675781 83.640625 53.65625 83.847656 53.613281 C 84.042969 53.570312 84.230469 53.507812 84.414062 53.421875 L 84.414062 52.695312 C 84.25 52.773438 84.082031 52.832031 83.90625 52.878906 C 83.726562 52.925781 83.546875 52.949219 83.359375 52.949219 Z M 83.359375 52.949219 " fill-opacity="1" fill-rule="nonzero"/><path fill="#0053cc" d="M 88.238281 50.675781 C 88.132812 50.355469 87.945312 50.097656 87.675781 49.898438 C 87.300781 49.675781 86.894531 49.585938 86.460938 49.632812 C 86.027344 49.675781 85.648438 49.847656 85.328125 50.144531 C 85.007812 50.492188 84.851562 51.003906 84.851562 51.671875 C 84.839844 52.058594 84.914062 52.429688 85.082031 52.78125 C 85.222656 53.082031 85.441406 53.308594 85.730469 53.46875 C 86.042969 53.632812 86.375 53.710938 86.730469 53.699219 C 86.988281 53.703125 87.242188 53.679688 87.496094 53.628906 C 87.707031 53.582031 87.910156 53.519531 88.109375 53.4375 L 88.109375 52.695312 C 88 52.75 87.890625 52.796875 87.777344 52.835938 C 87.636719 52.890625 87.496094 52.929688 87.351562 52.957031 C 87.191406 52.988281 87.027344 53.003906 86.859375 53.003906 C 86.511719 53.027344 86.214844 52.914062 85.96875 52.667969 C 85.773438 52.425781 85.675781 52.148438 85.675781 51.839844 L 88.40625 51.839844 C 88.417969 51.441406 88.363281 51.054688 88.238281 50.675781 Z M 86.109375 50.414062 C 86.273438 50.324219 86.449219 50.28125 86.636719 50.285156 C 86.917969 50.261719 87.152344 50.355469 87.34375 50.5625 C 87.484375 50.761719 87.5625 50.988281 87.574219 51.234375 L 85.691406 51.234375 C 85.707031 51.105469 85.738281 50.976562 85.78125 50.851562 C 85.835938 50.667969 85.945312 50.519531 86.109375 50.414062 Z M 86.109375 50.414062 " fill-opacity="1" fill-rule="nonzero"/><path fill="#0053cc" d="M 91.300781 51.636719 C 91.183594 51.554688 91.054688 51.488281 90.917969 51.445312 L 90.511719 51.320312 C 90.375 51.277344 90.242188 51.238281 90.128906 51.195312 C 90.015625 51.160156 89.917969 51.105469 89.835938 51.023438 C 89.753906 50.945312 89.714844 50.847656 89.722656 50.734375 C 89.71875 50.582031 89.785156 50.472656 89.921875 50.40625 C 90.082031 50.324219 90.25 50.285156 90.425781 50.292969 C 90.628906 50.289062 90.820312 50.324219 91.003906 50.402344 C 91.167969 50.472656 91.34375 50.558594 91.53125 50.65625 L 91.53125 49.960938 C 91.367188 49.875 91.195312 49.796875 91.023438 49.734375 C 90.804688 49.667969 90.578125 49.632812 90.351562 49.636719 C 90.179688 49.636719 90.011719 49.660156 89.84375 49.703125 C 89.671875 49.742188 89.515625 49.8125 89.371094 49.910156 C 89.226562 50.007812 89.109375 50.128906 89.023438 50.28125 C 88.929688 50.453125 88.886719 50.636719 88.890625 50.832031 C 88.886719 51.003906 88.921875 51.171875 88.996094 51.328125 C 89.0625 51.457031 89.15625 51.566406 89.277344 51.65625 C 89.394531 51.738281 89.523438 51.800781 89.660156 51.847656 C 89.800781 51.894531 89.941406 51.9375 90.078125 51.972656 L 90.464844 52.113281 C 90.574219 52.152344 90.679688 52.207031 90.769531 52.28125 C 90.855469 52.355469 90.894531 52.449219 90.890625 52.558594 C 90.886719 52.710938 90.824219 52.828125 90.699219 52.90625 C 90.539062 53.011719 90.363281 53.054688 90.171875 53.046875 C 90.011719 53.046875 89.855469 53.03125 89.699219 52.992188 C 89.554688 52.957031 89.421875 52.90625 89.289062 52.839844 C 89.160156 52.777344 89.03125 52.703125 88.894531 52.621094 L 88.894531 53.386719 C 89.078125 53.472656 89.273438 53.546875 89.46875 53.605469 C 89.699219 53.667969 89.9375 53.699219 90.175781 53.695312 C 90.429688 53.695312 90.675781 53.652344 90.917969 53.570312 C 91.144531 53.492188 91.339844 53.363281 91.492188 53.175781 C 91.652344 52.96875 91.726562 52.734375 91.722656 52.472656 C 91.730469 52.289062 91.691406 52.113281 91.609375 51.949219 C 91.53125 51.820312 91.429688 51.71875 91.300781 51.636719 Z M 91.300781 51.636719 " fill-opacity="1" fill-rule="nonzero"/><path fill="#0053cc" d="M 94.613281 51.636719 C 94.496094 51.554688 94.367188 51.488281 94.230469 51.445312 L 93.824219 51.320312 C 93.6875 51.277344 93.558594 51.238281 93.441406 51.195312 C 93.332031 51.160156 93.234375 51.105469 93.148438 51.023438 C 93.066406 50.945312 93.027344 50.847656 93.035156 50.734375 C 93.03125 50.582031 93.097656 50.472656 93.234375 50.40625 C 93.394531 50.324219 93.5625 50.285156 93.742188 50.292969 C 93.941406 50.289062 94.132812 50.324219 94.316406 50.402344 C 94.480469 50.472656 94.660156 50.558594 94.84375 50.65625 L 94.84375 49.960938 C 94.679688 49.871094 94.511719 49.796875 94.335938 49.734375 C 94.117188 49.667969 93.894531 49.632812 93.667969 49.636719 C 93.492188 49.636719 93.324219 49.660156 93.15625 49.703125 C 92.988281 49.742188 92.828125 49.8125 92.683594 49.910156 C 92.539062 50.007812 92.425781 50.128906 92.335938 50.28125 C 92.246094 50.453125 92.199219 50.636719 92.207031 50.832031 C 92.203125 51.003906 92.234375 51.171875 92.3125 51.328125 C 92.378906 51.457031 92.472656 51.566406 92.589844 51.65625 C 92.710938 51.738281 92.835938 51.800781 92.976562 51.847656 C 93.113281 51.894531 93.253906 51.9375 93.394531 51.972656 L 93.777344 52.113281 C 93.890625 52.152344 93.992188 52.207031 94.085938 52.28125 C 94.171875 52.355469 94.210938 52.449219 94.207031 52.558594 C 94.203125 52.710938 94.140625 52.828125 94.011719 52.90625 C 93.855469 53.011719 93.679688 53.054688 93.492188 53.046875 C 93.328125 53.046875 93.171875 53.03125 93.011719 52.992188 C 92.871094 52.957031 92.738281 52.90625 92.605469 52.839844 C 92.476562 52.777344 92.34375 52.703125 92.210938 52.621094 L 92.210938 53.386719 C 92.398438 53.472656 92.589844 53.546875 92.785156 53.605469 C 93.019531 53.667969 93.257812 53.699219 93.496094 53.695312 C 93.75 53.695312 93.996094 53.652344 94.234375 53.570312 C 94.464844 53.496094 94.65625 53.363281 94.808594 53.175781 C 94.96875 52.96875 95.046875 52.734375 95.039062 52.472656 C 95.039062 52.296875 94.992188 52.125 94.910156 51.96875 C 94.835938 51.835938 94.738281 51.726562 94.613281 51.636719 Z M 94.613281 51.636719 " fill-opacity="1" fill-rule="nonzero"/><path fill="#0053cc" d="M 95.6875 49.738281 L 95.6875 53.589844 L 96.507812 53.589844 L 96.5 49.738281 Z M 95.6875 49.738281 " fill-opacity="1" fill-rule="nonzero"/><path fill="#0053cc" d="M 95.660156 48.363281 L 96.53125 48.363281 L 96.53125 49.097656 L 95.660156 49.097656 Z M 95.660156 48.363281 " fill-opacity="1" fill-rule="nonzero"/><path fill="#0053cc" d="M 99.179688 49.632812 C 99.046875 49.632812 98.921875 49.648438 98.792969 49.675781 C 98.640625 49.707031 98.492188 49.75 98.34375 49.800781 C 98.285156 49.820312 98.234375 49.84375 98.183594 49.867188 L 98.183594 48.164062 L 97.378906 48.164062 L 97.378906 52.824219 C 97.371094 52.988281 97.414062 53.136719 97.511719 53.265625 C 97.613281 53.386719 97.734375 53.476562 97.882812 53.53125 C 98.050781 53.601562 98.226562 53.644531 98.410156 53.667969 C 98.613281 53.695312 98.816406 53.707031 99.023438 53.707031 C 99.261719 53.707031 99.496094 53.675781 99.726562 53.613281 C 99.957031 53.550781 100.164062 53.445312 100.34375 53.292969 C 100.546875 53.117188 100.695312 52.90625 100.785156 52.65625 C 100.910156 52.320312 100.964844 51.972656 100.953125 51.613281 C 100.953125 50.988281 100.808594 50.496094 100.511719 50.152344 C 100.21875 49.804688 99.765625 49.632812 99.179688 49.632812 Z M 100.023438 52.328125 C 99.964844 52.527344 99.851562 52.691406 99.683594 52.816406 C 99.46875 52.960938 99.234375 53.023438 98.976562 53.007812 C 98.851562 53.007812 98.730469 53 98.609375 52.984375 C 98.496094 52.96875 98.394531 52.933594 98.300781 52.871094 C 98.214844 52.8125 98.171875 52.734375 98.175781 52.632812 L 98.175781 50.542969 C 98.3125 50.460938 98.460938 50.40625 98.617188 50.371094 C 98.757812 50.335938 98.90625 50.320312 99.054688 50.316406 C 99.269531 50.308594 99.46875 50.359375 99.652344 50.472656 C 99.816406 50.582031 99.933594 50.734375 100 50.921875 C 100.085938 51.15625 100.125 51.394531 100.117188 51.644531 C 100.121094 51.878906 100.089844 52.105469 100.023438 52.328125 Z M 100.023438 52.328125 " fill-opacity="1" fill-rule="nonzero"/><path fill="#0053cc" d="M 101.582031 48.363281 L 102.453125 48.363281 L 102.453125 49.097656 L 101.582031 49.097656 Z M 101.582031 48.363281 " fill-opacity="1" fill-rule="nonzero"/><path fill="#0053cc" d="M 101.605469 49.738281 L 101.605469 53.589844 L 102.429688 53.589844 L 102.421875 49.738281 Z M 101.605469 49.738281 " fill-opacity="1" fill-rule="nonzero"/><path fill="#0053cc" d="M 103.289062 48.25 L 104.097656 48.25 L 104.097656 53.589844 L 103.289062 53.589844 Z M 103.289062 48.25 " fill-opacity="1" fill-rule="nonzero"/><path fill="#0053cc" d="M 104.957031 49.738281 L 104.957031 53.589844 L 105.78125 53.589844 L 105.773438 49.738281 Z M 104.957031 49.738281 " fill-opacity="1" fill-rule="nonzero"/><path fill="#0053cc" d="M 104.9375 48.363281 L 105.804688 48.363281 L 105.804688 49.097656 L 104.9375 49.097656 Z M 104.9375 48.363281 " fill-opacity="1" fill-rule="nonzero"/><path fill="#0053cc" d="M 107.730469 48.632812 L 106.890625 48.632812 L 106.890625 49.714844 L 106.265625 49.714844 L 106.265625 50.386719 L 106.890625 50.386719 L 106.890625 52.59375 C 106.867188 52.914062 106.972656 53.1875 107.199219 53.414062 C 107.441406 53.613281 107.71875 53.707031 108.03125 53.691406 C 108.144531 53.691406 108.253906 53.679688 108.363281 53.660156 C 108.472656 53.640625 108.578125 53.609375 108.679688 53.566406 L 108.679688 52.847656 C 108.605469 52.890625 108.53125 52.917969 108.453125 52.9375 C 108.363281 52.960938 108.277344 52.972656 108.1875 52.972656 C 108.042969 52.992188 107.925781 52.945312 107.828125 52.835938 C 107.753906 52.710938 107.71875 52.578125 107.730469 52.433594 L 107.730469 50.386719 L 108.679688 50.386719 L 108.679688 49.714844 L 107.730469 49.714844 Z M 107.730469 48.632812 " fill-opacity="1" fill-rule="nonzero"/><g clip-path="url(#5c2a1c0674)"><path fill="#0053cc" d="M 110.96875 52.613281 L 109.902344 49.714844 L 108.980469 49.714844 L 110.566406 53.570312 C 110.535156 53.683594 110.496094 53.792969 110.445312 53.898438 C 110.386719 54.039062 110.300781 54.15625 110.183594 54.253906 C 110.070312 54.339844 109.941406 54.382812 109.800781 54.378906 C 109.734375 54.378906 109.671875 54.371094 109.605469 54.355469 C 109.542969 54.339844 109.480469 54.320312 109.414062 54.300781 L 109.414062 54.996094 C 109.578125 55.054688 109.75 55.085938 109.925781 55.089844 C 110.089844 55.085938 110.242188 55.050781 110.386719 54.980469 C 110.570312 54.886719 110.726562 54.757812 110.851562 54.597656 C 111.027344 54.363281 111.167969 54.109375 111.269531 53.835938 L 112.875 49.71875 L 112.03125 49.71875 Z M 110.96875 52.613281 " fill-opacity="1" fill-rule="nonzero"/></g><path fill="#0053cc" d="M 117.53125 51.636719 C 117.414062 51.554688 117.285156 51.488281 117.148438 51.445312 L 116.746094 51.320312 C 116.605469 51.277344 116.472656 51.238281 116.351562 51.195312 C 116.242188 51.160156 116.144531 51.105469 116.058594 51.023438 C 115.976562 50.945312 115.9375 50.847656 115.945312 50.734375 C 115.941406 50.582031 116.007812 50.472656 116.144531 50.40625 C 116.304688 50.324219 116.472656 50.285156 116.652344 50.292969 C 116.851562 50.289062 117.042969 50.324219 117.226562 50.402344 C 117.390625 50.472656 117.570312 50.558594 117.753906 50.65625 L 117.753906 49.960938 C 117.589844 49.871094 117.421875 49.796875 117.246094 49.734375 C 117.027344 49.667969 116.804688 49.632812 116.578125 49.636719 C 116.402344 49.636719 116.234375 49.660156 116.066406 49.703125 C 115.898438 49.742188 115.738281 49.8125 115.59375 49.910156 C 115.449219 50.007812 115.335938 50.128906 115.246094 50.28125 C 115.15625 50.453125 115.113281 50.636719 115.117188 50.832031 C 115.113281 51.003906 115.144531 51.171875 115.222656 51.328125 C 115.289062 51.457031 115.382812 51.566406 115.5 51.65625 C 115.621094 51.738281 115.746094 51.800781 115.886719 51.847656 C 116.023438 51.894531 116.164062 51.9375 116.304688 51.972656 L 116.6875 52.113281 C 116.800781 52.152344 116.902344 52.207031 116.996094 52.28125 C 117.082031 52.355469 117.121094 52.449219 117.117188 52.558594 C 117.113281 52.710938 117.050781 52.828125 116.921875 52.90625 C 116.765625 53.011719 116.589844 53.054688 116.398438 53.046875 C 116.238281 53.046875 116.078125 53.03125 115.921875 52.992188 C 115.78125 52.957031 115.644531 52.90625 115.515625 52.839844 C 115.386719 52.777344 115.253906 52.703125 115.117188 52.621094 L 115.117188 53.386719 C 115.304688 53.472656 115.496094 53.546875 115.695312 53.605469 C 115.925781 53.667969 116.164062 53.699219 116.40625 53.695312 C 116.65625 53.695312 116.902344 53.652344 117.144531 53.570312 C 117.371094 53.496094 117.566406 53.363281 117.71875 53.175781 C 117.878906 52.96875 117.953125 52.734375 117.945312 52.472656 C 117.953125 52.289062 117.917969 52.113281 117.835938 51.949219 C 117.757812 51.824219 117.65625 51.71875 117.53125 51.636719 Z M 117.53125 51.636719 " fill-opacity="1" fill-rule="nonzero"/><path fill="#0053cc" d="M 121.296875 49.867188 C 120.964844 49.695312 120.609375 49.617188 120.234375 49.632812 C 119.632812 49.632812 119.171875 49.792969 118.855469 50.121094 C 118.539062 50.449219 118.378906 50.960938 118.378906 51.664062 C 118.378906 52.324219 118.53125 52.832031 118.839844 53.191406 C 119.148438 53.550781 119.617188 53.722656 120.25 53.707031 C 120.796875 53.738281 121.257812 53.5625 121.636719 53.167969 C 121.960938 52.8125 122.121094 52.304688 122.121094 51.652344 C 122.132812 51.269531 122.0625 50.902344 121.917969 50.550781 C 121.789062 50.253906 121.582031 50.023438 121.296875 49.867188 Z M 121.210938 52.363281 C 121.148438 52.558594 121.039062 52.71875 120.871094 52.84375 C 120.683594 52.972656 120.472656 53.03125 120.246094 53.019531 C 119.902344 53.050781 119.632812 52.929688 119.429688 52.65625 C 119.25 52.34375 119.167969 52.011719 119.1875 51.652344 C 119.183594 51.40625 119.21875 51.164062 119.289062 50.925781 C 119.351562 50.734375 119.460938 50.582031 119.625 50.464844 C 119.8125 50.34375 120.019531 50.289062 120.246094 50.300781 C 120.464844 50.292969 120.671875 50.339844 120.867188 50.453125 C 121.03125 50.5625 121.144531 50.714844 121.207031 50.90625 C 121.285156 51.148438 121.324219 51.398438 121.316406 51.652344 C 121.320312 51.894531 121.285156 52.132812 121.210938 52.363281 Z M 121.210938 52.363281 " fill-opacity="1" fill-rule="nonzero"/><path fill="#0053cc" d="M 122.753906 48.25 L 123.5625 48.25 L 123.5625 53.589844 L 122.753906 53.589844 Z M 122.753906 48.25 " fill-opacity="1" fill-rule="nonzero"/><path fill="#0053cc" d="M 127.03125 52.03125 C 127.054688 52.304688 126.980469 52.546875 126.8125 52.761719 C 126.609375 52.917969 126.378906 52.996094 126.125 52.996094 C 125.867188 52.996094 125.636719 52.917969 125.4375 52.761719 C 125.265625 52.546875 125.191406 52.304688 125.214844 52.03125 L 125.214844 49.714844 L 124.398438 49.714844 L 124.398438 52.144531 C 124.390625 52.453125 124.460938 52.742188 124.609375 53.011719 C 124.753906 53.246094 124.949219 53.421875 125.203125 53.53125 C 125.5 53.65625 125.804688 53.714844 126.125 53.707031 C 126.589844 53.734375 127.003906 53.601562 127.371094 53.3125 C 127.667969 53.050781 127.816406 52.660156 127.816406 52.144531 L 127.816406 49.714844 L 127.03125 49.714844 Z M 127.03125 52.03125 " fill-opacity="1" fill-rule="nonzero"/><path fill="#0053cc" d="M 129.742188 48.632812 L 128.902344 48.632812 L 128.902344 49.714844 L 128.273438 49.714844 L 128.273438 50.386719 L 128.902344 50.386719 L 128.902344 52.59375 C 128.878906 52.914062 128.980469 53.1875 129.210938 53.414062 C 129.449219 53.613281 129.726562 53.707031 130.042969 53.6875 C 130.152344 53.6875 130.261719 53.675781 130.371094 53.65625 C 130.480469 53.636719 130.585938 53.605469 130.6875 53.5625 L 130.6875 52.84375 C 130.617188 52.886719 130.542969 52.914062 130.460938 52.933594 C 130.375 52.957031 130.289062 52.96875 130.199219 52.96875 C 130.054688 52.984375 129.933594 52.941406 129.835938 52.832031 C 129.761719 52.707031 129.730469 52.574219 129.742188 52.429688 L 129.742188 50.386719 L 130.6875 50.386719 L 130.6875 49.714844 L 129.742188 49.714844 Z M 129.742188 48.632812 " fill-opacity="1" fill-rule="nonzero"/><path fill="#0053cc" d="M 131.324219 48.363281 L 132.191406 48.363281 L 132.191406 49.097656 L 131.324219 49.097656 Z M 131.324219 48.363281 " fill-opacity="1" fill-rule="nonzero"/><path fill="#0053cc" d="M 131.347656 49.738281 L 131.347656 53.589844 L 132.167969 53.589844 L 132.160156 49.738281 Z M 131.347656 49.738281 " fill-opacity="1" fill-rule="nonzero"/><path fill="#0053cc" d="M 135.746094 49.867188 C 135.414062 49.695312 135.058594 49.617188 134.683594 49.632812 C 134.082031 49.632812 133.625 49.792969 133.304688 50.121094 C 132.988281 50.449219 132.828125 50.960938 132.828125 51.664062 C 132.828125 52.320312 132.984375 52.828125 133.289062 53.191406 C 133.597656 53.554688 134.070312 53.722656 134.699219 53.722656 C 135.246094 53.757812 135.707031 53.578125 136.085938 53.1875 C 136.40625 52.828125 136.570312 52.324219 136.570312 51.671875 C 136.582031 51.289062 136.519531 50.921875 136.378906 50.566406 C 136.25 50.261719 136.039062 50.027344 135.746094 49.867188 Z M 135.65625 52.375 C 135.597656 52.570312 135.484375 52.730469 135.320312 52.855469 C 135.128906 52.984375 134.921875 53.039062 134.691406 53.027344 C 134.351562 53.0625 134.078125 52.941406 133.875 52.664062 C 133.695312 52.355469 133.617188 52.019531 133.636719 51.664062 C 133.628906 51.414062 133.664062 51.171875 133.738281 50.9375 C 133.796875 50.746094 133.90625 50.589844 134.070312 50.472656 C 134.261719 50.355469 134.46875 50.300781 134.691406 50.3125 C 134.914062 50.300781 135.121094 50.351562 135.3125 50.460938 C 135.480469 50.574219 135.59375 50.722656 135.652344 50.914062 C 135.734375 51.15625 135.769531 51.40625 135.765625 51.664062 C 135.765625 51.902344 135.730469 52.136719 135.65625 52.363281 Z M 135.65625 52.375 " fill-opacity="1" fill-rule="nonzero"/><path fill="#0053cc" d="M 140.433594 50.25 C 140.316406 50.035156 140.144531 49.878906 139.914062 49.785156 C 139.625 49.675781 139.324219 49.625 139.015625 49.636719 C 138.851562 49.636719 138.695312 49.648438 138.535156 49.667969 C 138.367188 49.6875 138.203125 49.714844 138.042969 49.75 C 137.890625 49.785156 137.738281 49.828125 137.589844 49.878906 C 137.457031 49.925781 137.332031 49.976562 137.207031 50.039062 L 137.207031 53.59375 L 138.019531 53.59375 L 138.019531 50.472656 C 138.296875 50.378906 138.578125 50.328125 138.867188 50.324219 C 139.03125 50.316406 139.1875 50.34375 139.34375 50.394531 C 139.457031 50.433594 139.546875 50.496094 139.625 50.585938 C 139.6875 50.664062 139.730469 50.75 139.753906 50.847656 C 139.777344 50.941406 139.789062 51.039062 139.789062 51.136719 L 139.789062 53.589844 L 140.601562 53.589844 L 140.601562 51.027344 C 140.613281 50.753906 140.554688 50.496094 140.433594 50.25 Z M 140.433594 50.25 " fill-opacity="1" fill-rule="nonzero"/><path fill="#136ef8" d="M 49.984375 29.242188 L 44.5625 43.484375 L 47.847656 43.484375 L 48.878906 40.40625 L 54.234375 40.40625 L 55.28125 43.484375 L 58.847656 43.484375 L 53.777344 29.242188 Z M 49.738281 37.871094 L 51.535156 32.488281 L 53.367188 37.871094 Z M 49.738281 37.871094 " fill-opacity="1" fill-rule="nonzero"/><path fill="#136ef8" d="M 65.183594 41.082031 C 64.050781 41.082031 63.242188 40.8125 62.753906 40.273438 C 62.269531 39.730469 62.027344 38.925781 62.023438 37.855469 C 62.023438 36.84375 62.300781 36.117188 62.851562 35.667969 C 63.402344 35.21875 64.128906 34.996094 65.03125 34.992188 C 65.535156 34.992188 66.023438 35.066406 66.503906 35.21875 C 67.003906 35.378906 67.496094 35.570312 67.972656 35.792969 L 67.972656 33.0625 C 67.445312 32.832031 66.898438 32.664062 66.332031 32.558594 C 65.734375 32.441406 65.128906 32.382812 64.515625 32.378906 C 63.738281 32.371094 62.976562 32.492188 62.238281 32.742188 C 61.5625 32.972656 60.964844 33.335938 60.445312 33.828125 C 59.910156 34.347656 59.515625 34.953125 59.253906 35.652344 C 58.949219 36.484375 58.804688 37.34375 58.824219 38.226562 C 58.808594 39.070312 58.957031 39.882812 59.273438 40.664062 C 59.554688 41.335938 59.96875 41.914062 60.519531 42.394531 C 61.0625 42.855469 61.667969 43.199219 62.347656 43.417969 C 63.058594 43.648438 63.789062 43.761719 64.539062 43.757812 C 65.175781 43.765625 65.808594 43.695312 66.429688 43.542969 C 66.972656 43.402344 67.496094 43.203125 67.996094 42.945312 L 67.996094 40.234375 C 67.585938 40.457031 67.160156 40.648438 66.71875 40.808594 C 66.222656 40.992188 65.710938 41.085938 65.183594 41.082031 Z M 65.183594 41.082031 " fill-opacity="1" fill-rule="nonzero"/><path fill="#136ef8" d="M 75.105469 41.082031 C 73.972656 41.082031 73.164062 40.8125 72.679688 40.273438 C 72.191406 39.730469 71.949219 38.925781 71.949219 37.855469 C 71.949219 36.84375 72.222656 36.117188 72.777344 35.667969 C 73.328125 35.21875 74.054688 34.996094 74.953125 34.992188 C 75.457031 34.992188 75.949219 35.066406 76.425781 35.21875 C 76.929688 35.378906 77.417969 35.570312 77.898438 35.792969 L 77.898438 33.0625 C 77.371094 32.832031 76.820312 32.664062 76.253906 32.558594 C 75.65625 32.441406 75.050781 32.382812 74.441406 32.378906 C 73.660156 32.371094 72.902344 32.492188 72.164062 32.742188 C 71.488281 32.972656 70.886719 33.335938 70.371094 33.828125 C 69.835938 34.347656 69.441406 34.957031 69.183594 35.652344 C 68.878906 36.484375 68.734375 37.34375 68.75 38.226562 C 68.734375 39.070312 68.882812 39.882812 69.203125 40.664062 C 69.484375 41.335938 69.898438 41.914062 70.449219 42.394531 C 70.988281 42.855469 71.597656 43.199219 72.273438 43.417969 C 72.984375 43.648438 73.714844 43.761719 74.460938 43.757812 C 75.101562 43.765625 75.730469 43.695312 76.351562 43.542969 C 76.898438 43.402344 77.417969 43.203125 77.917969 42.945312 L 77.917969 40.234375 C 77.507812 40.457031 77.082031 40.648438 76.640625 40.808594 C 76.148438 40.992188 75.636719 41.085938 75.105469 41.082031 Z M 75.105469 41.082031 " fill-opacity="1" fill-rule="nonzero"/><path fill="#136ef8" d="M 88.636719 35.320312 C 88.34375 34.394531 87.804688 33.648438 87.015625 33.078125 C 86.277344 32.570312 85.308594 32.3125 84.105469 32.3125 C 82.359375 32.3125 81.015625 32.832031 80.074219 33.863281 C 79.132812 34.894531 78.664062 36.351562 78.664062 38.230469 C 78.636719 39.285156 78.871094 40.277344 79.363281 41.210938 C 79.824219 42.046875 80.472656 42.6875 81.320312 43.132812 C 82.222656 43.601562 83.179688 43.828125 84.199219 43.808594 C 84.949219 43.816406 85.6875 43.75 86.421875 43.605469 C 87.015625 43.480469 87.589844 43.308594 88.148438 43.082031 L 88.148438 40.34375 C 87.90625 40.441406 87.613281 40.554688 87.269531 40.683594 C 86.90625 40.816406 86.539062 40.929688 86.164062 41.015625 C 85.769531 41.109375 85.375 41.152344 84.972656 41.152344 C 83.882812 41.152344 83.089844 40.875 82.597656 40.320312 C 82.25 39.910156 82.03125 39.441406 81.945312 38.910156 L 89.117188 38.910156 C 89.136719 37.5 88.976562 36.304688 88.636719 35.320312 Z M 82.890625 35.042969 C 83.222656 34.839844 83.585938 34.738281 83.976562 34.746094 C 84.691406 34.746094 85.207031 34.980469 85.523438 35.449219 C 85.777344 35.894531 85.921875 36.371094 85.957031 36.882812 L 81.9375 36.882812 C 81.972656 36.59375 82.039062 36.3125 82.140625 36.039062 C 82.277344 35.621094 82.527344 35.292969 82.890625 35.042969 Z M 82.890625 35.042969 " fill-opacity="1" fill-rule="nonzero"/><path fill="#136ef8" d="M 97.433594 37.808594 C 97.097656 37.589844 96.742188 37.421875 96.359375 37.296875 C 95.976562 37.179688 95.609375 37.074219 95.253906 36.988281 C 94.898438 36.90625 94.621094 36.8125 94.351562 36.722656 C 94.105469 36.640625 93.886719 36.515625 93.695312 36.339844 C 93.519531 36.164062 93.4375 35.949219 93.449219 35.699219 C 93.445312 35.402344 93.566406 35.175781 93.8125 35.015625 C 94.058594 34.84375 94.457031 34.757812 95.019531 34.757812 C 95.59375 34.75 96.140625 34.867188 96.660156 35.113281 C 97.140625 35.347656 97.621094 35.601562 98.109375 35.875 L 98.109375 33.378906 C 97.660156 33.113281 97.183594 32.902344 96.683594 32.746094 C 95.992188 32.558594 95.285156 32.464844 94.570312 32.460938 C 94.0625 32.445312 93.558594 32.5 93.066406 32.621094 C 92.550781 32.738281 92.070312 32.941406 91.628906 33.230469 C 91.179688 33.515625 90.820312 33.890625 90.550781 34.351562 C 90.257812 34.894531 90.121094 35.472656 90.144531 36.089844 C 90.132812 36.566406 90.214844 37.027344 90.394531 37.46875 C 90.542969 37.832031 90.761719 38.148438 91.046875 38.421875 C 91.320312 38.679688 91.625 38.882812 91.972656 39.03125 C 92.300781 39.175781 92.644531 39.289062 92.996094 39.363281 C 93.382812 39.449219 93.75 39.542969 94.09375 39.640625 C 94.394531 39.722656 94.671875 39.851562 94.929688 40.023438 C 95.148438 40.160156 95.257812 40.355469 95.253906 40.609375 C 95.253906 40.878906 95.152344 41.09375 94.941406 41.261719 C 94.734375 41.441406 94.371094 41.53125 93.855469 41.527344 C 93.371094 41.53125 92.894531 41.46875 92.429688 41.335938 C 91.996094 41.21875 91.585938 41.050781 91.191406 40.835938 C 90.820312 40.628906 90.484375 40.425781 90.183594 40.226562 L 90.183594 43.015625 C 90.671875 43.210938 91.191406 43.394531 91.742188 43.558594 C 92.390625 43.734375 93.054688 43.816406 93.726562 43.804688 C 94.527344 43.8125 95.3125 43.699219 96.078125 43.472656 C 96.777344 43.273438 97.371094 42.902344 97.851562 42.359375 C 98.3125 41.839844 98.546875 41.148438 98.5625 40.277344 C 98.585938 39.738281 98.480469 39.21875 98.25 38.730469 C 98.058594 38.351562 97.785156 38.046875 97.433594 37.808594 Z M 97.433594 37.808594 " fill-opacity="1" fill-rule="nonzero"/><path fill="#136ef8" d="M 106.925781 37.808594 C 106.59375 37.589844 106.234375 37.417969 105.851562 37.296875 C 105.46875 37.179688 105.101562 37.074219 104.746094 36.988281 C 104.390625 36.90625 104.113281 36.8125 103.84375 36.722656 C 103.597656 36.640625 103.378906 36.515625 103.1875 36.339844 C 103.011719 36.160156 102.929688 35.949219 102.941406 35.699219 C 102.9375 35.402344 103.058594 35.175781 103.304688 35.015625 C 103.550781 34.84375 103.949219 34.757812 104.507812 34.757812 C 105.082031 34.746094 105.632812 34.867188 106.152344 35.113281 C 106.632812 35.347656 107.113281 35.601562 107.601562 35.875 L 107.601562 33.378906 C 107.148438 33.113281 106.675781 32.902344 106.175781 32.746094 C 105.484375 32.558594 104.777344 32.464844 104.0625 32.460938 C 103.554688 32.445312 103.050781 32.5 102.558594 32.621094 C 102.042969 32.738281 101.5625 32.941406 101.121094 33.230469 C 100.671875 33.515625 100.3125 33.890625 100.042969 34.351562 C 99.75 34.894531 99.613281 35.472656 99.636719 36.089844 C 99.625 36.566406 99.707031 37.027344 99.882812 37.46875 C 100.035156 37.832031 100.253906 38.148438 100.539062 38.421875 C 100.808594 38.679688 101.117188 38.882812 101.460938 39.03125 C 101.792969 39.175781 102.136719 39.289062 102.492188 39.363281 C 102.875 39.449219 103.242188 39.542969 103.585938 39.640625 C 103.886719 39.722656 104.167969 39.851562 104.425781 40.023438 C 104.640625 40.160156 104.75 40.355469 104.746094 40.609375 C 104.75 40.878906 104.644531 41.09375 104.433594 41.261719 C 104.226562 41.433594 103.867188 41.519531 103.355469 41.515625 C 102.871094 41.519531 102.394531 41.457031 101.925781 41.324219 C 101.496094 41.207031 101.085938 41.039062 100.691406 40.824219 C 100.320312 40.617188 99.984375 40.414062 99.683594 40.214844 L 99.683594 43.015625 C 100.167969 43.210938 100.6875 43.398438 101.242188 43.566406 C 101.894531 43.742188 102.558594 43.824219 103.230469 43.8125 C 104.03125 43.820312 104.816406 43.707031 105.582031 43.480469 C 106.28125 43.28125 106.871094 42.910156 107.355469 42.367188 C 107.816406 41.847656 108.050781 41.15625 108.0625 40.285156 C 108.085938 39.746094 107.984375 39.226562 107.753906 38.734375 C 107.558594 38.355469 107.285156 38.046875 106.925781 37.808594 Z M 106.925781 37.808594 " fill-opacity="1" fill-rule="nonzero"/><path fill="#136ef8" d="M 109.492188 28.742188 L 112.800781 28.742188 L 112.800781 31.199219 L 109.492188 31.199219 Z M 109.492188 28.742188 " fill-opacity="1" fill-rule="nonzero"/><path fill="#136ef8" d="M 109.558594 32.820312 L 109.558594 43.484375 L 112.78125 43.484375 L 112.757812 32.820312 Z M 109.558594 32.820312 " fill-opacity="1" fill-rule="nonzero"/><path fill="#136ef8" d="M 130.714844 29.234375 L 128.460938 39.207031 L 125.539062 29.234375 L 122.855469 29.234375 L 119.957031 39.179688 L 117.699219 29.234375 L 113.894531 29.234375 L 117.914062 43.484375 L 121.351562 43.484375 L 124.214844 34.238281 L 127.0625 43.484375 L 130.5 43.484375 L 134.515625 29.234375 Z M 130.714844 29.234375 " fill-opacity="1" fill-rule="nonzero"/><path fill="#136ef8" d="M 142.820312 33.398438 C 142.472656 33.117188 142.089844 32.898438 141.667969 32.746094 C 141.261719 32.601562 140.847656 32.496094 140.421875 32.4375 C 140.042969 32.382812 139.664062 32.355469 139.28125 32.351562 C 138.394531 32.339844 137.515625 32.441406 136.652344 32.652344 C 136.046875 32.785156 135.46875 32.996094 134.925781 33.292969 L 134.925781 36.117188 C 135.398438 35.765625 135.917969 35.5 136.480469 35.316406 C 137.097656 35.097656 137.730469 34.988281 138.382812 34.984375 C 139.148438 34.984375 139.753906 35.132812 140.175781 35.421875 C 140.601562 35.714844 140.8125 36.1875 140.8125 36.84375 L 140.8125 37.53125 C 140.707031 37.472656 140.597656 37.414062 140.476562 37.359375 C 140.082031 37.175781 139.667969 37.039062 139.242188 36.949219 C 138.777344 36.851562 138.304688 36.800781 137.824219 36.800781 C 137.070312 36.777344 136.347656 36.910156 135.65625 37.207031 C 135.105469 37.449219 134.675781 37.832031 134.378906 38.355469 C 134.082031 38.902344 133.945312 39.484375 133.960938 40.105469 C 133.9375 40.730469 134.058594 41.324219 134.324219 41.890625 C 134.558594 42.359375 134.898438 42.738281 135.34375 43.023438 C 135.816406 43.3125 136.324219 43.511719 136.871094 43.621094 C 137.480469 43.746094 138.101562 43.8125 138.726562 43.808594 C 139.679688 43.824219 140.625 43.734375 141.5625 43.546875 C 142.234375 43.429688 142.832031 43.15625 143.355469 42.726562 C 143.792969 42.324219 144 41.832031 143.976562 41.238281 L 144 36.132812 C 144.015625 35.5625 143.90625 35.011719 143.671875 34.488281 C 143.46875 34.0625 143.183594 33.699219 142.820312 33.398438 Z M 140.371094 41.417969 C 139.863281 41.542969 139.351562 41.59375 138.832031 41.566406 C 138.546875 41.570312 138.269531 41.511719 138.007812 41.394531 C 137.75 41.292969 137.539062 41.128906 137.375 40.90625 C 137.214844 40.691406 137.132812 40.449219 137.136719 40.179688 C 137.109375 39.761719 137.269531 39.4375 137.621094 39.207031 C 137.941406 39 138.457031 38.898438 139.15625 38.898438 C 139.589844 38.894531 140.019531 38.945312 140.445312 39.046875 C 140.574219 39.078125 140.695312 39.117188 140.8125 39.15625 L 140.8125 40.820312 C 140.816406 40.957031 140.777344 41.082031 140.695312 41.191406 C 140.613281 41.304688 140.503906 41.375 140.371094 41.410156 Z M 140.371094 41.417969 " fill-opacity="1" fill-rule="nonzero"/><g clip-path="url(#a5639cdf43)"><path fill="#136ef8" d="M 152.667969 32.679688 L 150.378906 39.761719 L 148.070312 32.679688 L 144.398438 32.679688 L 148.761719 43.375 C 148.714844 43.546875 148.65625 43.710938 148.585938 43.875 C 148.453125 44.21875 148.234375 44.496094 147.929688 44.707031 C 147.644531 44.878906 147.332031 44.957031 146.996094 44.949219 C 146.789062 44.949219 146.578125 44.933594 146.371094 44.898438 C 146.152344 44.855469 145.9375 44.789062 145.730469 44.707031 L 145.730469 47.292969 C 146.011719 47.421875 146.304688 47.511719 146.609375 47.574219 C 146.957031 47.644531 147.308594 47.679688 147.660156 47.679688 C 148.195312 47.675781 148.695312 47.550781 149.167969 47.296875 C 149.726562 46.976562 150.195312 46.558594 150.570312 46.035156 C 151.101562 45.304688 151.523438 44.515625 151.828125 43.664062 L 156.101562 32.679688 Z M 152.667969 32.679688 " fill-opacity="1" fill-rule="nonzero"/></g></svg>