<?xml version="1.0" standalone="no"?>
<!DOCTYPE svg PUBLIC "-//W3C//DTD SVG 20010904//EN"
 "http://www.w3.org/TR/2001/REC-SVG-20010904/DTD/svg10.dtd">
<svg version="1.0" xmlns="http://www.w3.org/2000/svg"
 width="700.000000pt" height="700.000000pt" viewBox="0 0 700.000000 700.000000"
 preserveAspectRatio="xMidYMid meet">
<metadata>
Created by potrace 1.14, written by Peter Selinger 2001-2017
</metadata>
<g transform="translate(0.000000,700.000000) scale(0.100000,-0.100000)"
fill="#000000" stroke="none">
<path d="M2708 5260 c-243 -42 -454 -197 -564 -416 -54 -108 -77 -204 -78
-324 -1 -122 8 -181 40 -272 88 -242 281 -420 530 -489 70 -19 107 -22 334
-23 291 -3 407 9 548 54 239 77 334 144 645 450 137 135 273 261 303 281 71
47 168 78 263 85 159 11 255 66 317 179 104 189 -10 431 -221 473 -68 13 -204
7 -300 -15 -11 -2 -33 -7 -49 -9 -44 -8 -194 -63 -251 -91 -155 -79 -239 -147
-537 -444 -293 -291 -326 -305 -680 -308 -215 -2 -241 3 -274 54 -23 36 -13
100 20 134 l26 26 228 5 c220 5 229 6 282 32 100 48 159 120 183 223 36 158
-34 300 -183 373 -55 26 -57 26 -295 28 -132 1 -261 -2 -287 -6z"/>
<path d="M6298 5265 c-2 -1 -32 -5 -68 -9 -177 -17 -356 -79 -515 -179 -82
-51 -158 -119 -386 -344 -118 -118 -239 -229 -268 -249 -71 -48 -166 -82 -248
-89 -125 -11 -144 -14 -188 -34 -59 -26 -131 -95 -163 -156 -23 -44 -27 -62
-26 -145 0 -85 3 -100 28 -145 40 -72 90 -119 160 -152 56 -26 70 -28 171 -27
164 2 328 41 481 115 81 38 199 110 219 133 6 6 24 22 40 34 17 13 134 126
260 251 127 125 249 239 272 254 65 41 185 78 277 84 115 8 179 34 246 102
169 171 105 457 -120 536 -35 12 -164 27 -172 20z"/>
<path d="M1463 3478 c-206 -35 -326 -246 -252 -443 30 -80 104 -154 184 -185
55 -20 79 -22 270 -24 144 -1 217 -6 232 -14 81 -45 65 -180 -23 -198 -16 -3
-317 -6 -669 -7 l-640 -2 -56 -26 c-113 -53 -189 -164 -194 -281 -1 -35 2 -76
7 -93 5 -16 10 -35 11 -40 2 -6 15 -32 30 -57 36 -61 101 -114 172 -139 56
-19 78 -20 754 -17 l696 3 70 24 c168 56 287 136 391 262 63 77 125 212 148
324 15 69 16 237 2 300 -25 111 -79 231 -138 309 -59 77 -206 206 -234 206 -4
0 -15 6 -23 14 -23 20 -147 62 -222 77 -71 13 -450 19 -516 7z"/>
<path d="M3355 3478 c-269 -30 -524 -226 -620 -477 -49 -130 -54 -172 -52
-501 l2 -305 30 -59 c43 -84 115 -144 210 -173 129 -40 289 25 363 147 33 55
36 63 47 133 l6 37 108 0 108 0 6 -49 c12 -103 83 -197 187 -249 77 -38 189
-38 272 0 98 45 170 140 186 243 12 81 7 562 -7 630 -84 406 -440 668 -846
623z m158 -676 c31 -28 40 -53 42 -124 l2 -69 -111 3 -111 3 2 66 c1 78 12
103 56 130 37 22 90 18 120 -9z"/>
<path d="M4540 3475 c-106 -27 -185 -91 -228 -183 l-27 -57 0 -260 c0 -295 5
-330 70 -470 42 -90 107 -181 173 -239 19 -17 44 -39 56 -49 12 -11 46 -33 77
-50 l56 -31 6 -81 c9 -141 72 -237 190 -291 126 -57 272 -30 368 67 68 70 95
146 98 281 1 21 10 31 46 49 25 12 53 30 63 38 9 9 34 29 55 44 92 69 195 226
236 360 30 100 34 140 34 387 -1 257 -10 299 -82 382 -37 42 -120 92 -172 104
-140 31 -296 -42 -363 -171 -35 -68 -39 -101 -39 -315 0 -222 -8 -247 -85
-270 -40 -11 -106 20 -121 58 -6 16 -12 119 -14 242 -3 210 -3 216 -30 270
-69 144 -223 221 -367 185z"/>
</g>
</svg>
