<svg xmlns="http://www.w3.org/2000/svg" xmlns:xlink="http://www.w3.org/1999/xlink" width="220" zoomAndPan="magnify" viewBox="0 0 165 82.499998" height="110" preserveAspectRatio="xMidYMid meet" version="1.0"><defs><clipPath id="1988aaaed6"><path d="M 0.496094 0 L 164.503906 0 L 164.503906 82.003906 L 0.496094 82.003906 Z M 0.496094 0 " clip-rule="nonzero"/></clipPath><clipPath id="fe1eb4a10c"><path d="M 144 36 L 156.300781 36 L 156.300781 46 L 144 46 Z M 144 36 " clip-rule="nonzero"/></clipPath><clipPath id="a3d1d383c2"><path d="M 8.699219 33.621094 L 27 33.621094 L 27 48.53125 L 8.699219 48.53125 Z M 8.699219 33.621094 " clip-rule="nonzero"/></clipPath></defs><g clip-path="url(#1988aaaed6)"><path fill="#ffffff" d="M 0.496094 0 L 164.503906 0 L 164.503906 82.003906 L 0.496094 82.003906 Z M 0.496094 0 " fill-opacity="1" fill-rule="nonzero"/></g><path fill="#454850" d="M 37.011719 37.164062 C 38.605469 40.035156 39.785156 42.148438 41.746094 45.042969 C 41.15625 45.007812 40.8125 44.996094 40.457031 44.996094 C 40.105469 44.996094 39.738281 45.007812 39.171875 45.042969 C 38.816406 44.28125 38.441406 43.53125 38.039062 42.765625 L 32.421875 42.765625 C 31.972656 43.578125 31.535156 44.351562 31.179688 45.042969 C 31.003906 45.019531 30.6875 44.996094 30.367188 44.996094 C 30.046875 44.996094 29.730469 45.019531 29.554688 45.042969 C 31.15625 42.839844 33.316406 39.605469 34.816406 37.199219 L 34.78125 37.128906 C 34.628906 36.839844 34.390625 36.792969 33.871094 36.722656 L 33.871094 36.578125 C 34.25 36.578125 34.816406 36.625 35.183594 36.625 C 35.5 36.625 35.855469 36.578125 36.054688 36.578125 C 36.574219 36.578125 36.753906 36.675781 37.011719 37.164062 Z M 35.3125 37.996094 C 34.59375 39.140625 33.753906 40.488281 32.964844 41.835938 L 37.566406 41.835938 C 36.871094 40.585938 36.125 39.320312 35.3125 37.996094 Z M 35.3125 37.996094 " fill-opacity="1" fill-rule="nonzero"/><path fill="#454850" d="M 44.8125 44.984375 C 44.210938 44.984375 43.515625 45.007812 42.914062 45.03125 C 42.984375 44.210938 43.089844 43.042969 43.089844 40.753906 C 43.089844 37.914062 42.996094 37.390625 42.914062 36.578125 C 43.269531 36.601562 43.65625 36.625 44.011719 36.625 C 44.390625 36.625 44.765625 36.601562 45.132812 36.578125 C 45.050781 37.402344 44.957031 37.925781 44.957031 40.753906 C 44.957031 42.351562 44.992188 43.386719 45.039062 44.125 L 49.59375 44.125 C 50.375 44.125 50.75 44.101562 51.480469 43.304688 L 51.625 43.375 L 50.855469 44.878906 C 50.785156 45.007812 50.738281 45.03125 50.539062 45.03125 C 46.125 45.042969 45.402344 44.984375 44.8125 44.984375 Z M 44.8125 44.984375 " fill-opacity="1" fill-rule="nonzero"/><path fill="#454850" d="M 54.953125 44.984375 C 54.597656 44.984375 54.210938 45.007812 53.832031 45.03125 C 53.914062 44.210938 54.007812 43.042969 54.007812 40.753906 C 54.007812 38.878906 53.984375 38.09375 53.9375 37.472656 L 51.082031 37.472656 C 50.597656 37.472656 50.253906 37.652344 49.9375 38.117188 L 49.792969 38.082031 L 50.042969 36.625 C 50.054688 36.578125 50.078125 36.578125 50.148438 36.578125 L 59.722656 36.578125 C 59.757812 36.578125 59.828125 36.578125 59.839844 36.625 L 60.085938 38.082031 L 59.945312 38.117188 C 59.613281 37.652344 59.285156 37.472656 58.800781 37.472656 L 55.945312 37.472656 C 55.910156 38.09375 55.875 38.878906 55.875 40.753906 C 55.875 43.054688 55.980469 44.222656 56.050781 45.03125 C 55.695312 45.007812 55.304688 44.984375 54.953125 44.984375 Z M 54.953125 44.984375 " fill-opacity="1" fill-rule="nonzero"/><path fill="#454850" d="M 66.070312 37.164062 C 67.664062 40.035156 68.84375 42.148438 70.804688 45.042969 C 70.214844 45.007812 69.871094 44.996094 69.515625 44.996094 C 69.164062 44.996094 68.796875 45.007812 68.230469 45.042969 C 67.875 44.28125 67.5 43.53125 67.097656 42.765625 L 61.480469 42.765625 C 61.03125 43.578125 60.59375 44.351562 60.238281 45.042969 C 60.0625 45.019531 59.746094 44.996094 59.425781 44.996094 C 59.105469 44.996094 58.789062 45.019531 58.609375 45.042969 C 60.214844 42.839844 62.375 39.605469 63.875 37.199219 L 63.839844 37.128906 C 63.6875 36.839844 63.449219 36.792969 62.929688 36.722656 L 62.929688 36.578125 C 63.308594 36.578125 63.875 36.625 64.242188 36.625 C 64.558594 36.625 64.914062 36.578125 65.113281 36.578125 C 65.632812 36.578125 65.800781 36.675781 66.070312 37.164062 Z M 64.371094 37.996094 C 63.652344 39.140625 62.8125 40.488281 62.023438 41.835938 L 66.625 41.835938 C 65.917969 40.585938 65.175781 39.320312 64.371094 37.996094 Z M 64.371094 37.996094 " fill-opacity="1" fill-rule="nonzero"/><path fill="#454850" d="M 79.855469 38.273438 L 79.714844 38.320312 C 78.9375 37.402344 77.460938 37.128906 76.101562 37.128906 C 74.898438 37.128906 73.222656 37.402344 73.222656 38.476562 C 73.222656 40.644531 80.386719 38.558594 80.386719 42.445312 C 80.386719 45.066406 77.164062 45.308594 75.558594 45.308594 C 73.636719 45.308594 72.609375 45.007812 71.546875 44.542969 L 71.144531 42.921875 L 71.289062 42.863281 C 71.769531 43.734375 73.542969 44.484375 75.523438 44.484375 C 77.117188 44.484375 78.675781 44.125 78.675781 42.886719 C 78.675781 40.476562 71.511719 42.695312 71.511719 38.914062 C 71.511719 36.472656 74.414062 36.316406 76.164062 36.316406 C 77.828125 36.316406 79.042969 36.710938 79.585938 36.996094 Z M 79.855469 38.273438 " fill-opacity="1" fill-rule="nonzero"/><path fill="#454850" d="M 88.320312 37.164062 C 89.914062 40.035156 91.09375 42.148438 93.050781 45.042969 C 92.460938 45.007812 92.121094 44.996094 91.765625 44.996094 C 91.410156 44.996094 91.046875 45.007812 90.480469 45.042969 C 90.125 44.28125 89.746094 43.53125 89.347656 42.765625 L 83.726562 42.765625 C 83.277344 43.578125 82.84375 44.351562 82.488281 45.042969 C 82.3125 45.019531 81.992188 44.996094 81.675781 44.996094 C 81.355469 44.996094 81.035156 45.019531 80.859375 45.042969 C 82.464844 42.839844 84.625 39.605469 86.125 37.199219 L 86.089844 37.128906 C 85.921875 36.839844 85.699219 36.792969 85.179688 36.722656 L 85.179688 36.578125 C 85.558594 36.578125 86.125 36.625 86.488281 36.625 C 86.808594 36.625 87.164062 36.578125 87.363281 36.578125 C 87.882812 36.578125 88.058594 36.675781 88.320312 37.164062 Z M 86.621094 37.996094 C 85.898438 39.140625 85.0625 40.488281 84.269531 41.835938 L 88.875 41.835938 C 88.175781 40.585938 87.433594 39.320312 86.621094 37.996094 Z M 86.621094 37.996094 " fill-opacity="1" fill-rule="nonzero"/><path fill="#454850" d="M 95.316406 44.984375 C 94.964844 44.984375 94.574219 45.007812 94.21875 45.03125 C 94.292969 44.210938 94.398438 43.042969 94.398438 40.753906 C 94.398438 37.914062 94.304688 37.390625 94.21875 36.578125 C 94.761719 36.601562 95.386719 36.625 95.933594 36.625 C 96.464844 36.625 98.363281 36.578125 99.046875 36.578125 C 102.445312 36.578125 103.757812 37.210938 103.757812 39.152344 C 103.757812 40.574219 103.058594 41.289062 101.371094 41.585938 C 101.667969 41.824219 101.878906 42.125 102.070312 42.433594 C 102.765625 43.542969 103.121094 44.804688 104.253906 44.804688 C 104.664062 44.804688 105.019531 44.722656 105.410156 44.496094 L 105.492188 44.640625 C 105.007812 44.960938 104.359375 45.210938 103.355469 45.210938 C 99.695312 45.210938 100.902344 41.71875 98.445312 41.71875 L 96.296875 41.71875 C 96.308594 43.363281 96.390625 44.304688 96.464844 45.019531 C 96.074219 45.007812 95.695312 44.984375 95.316406 44.984375 Z M 96.332031 37.496094 C 96.296875 38.09375 96.261719 38.820312 96.261719 40.824219 L 99.035156 40.824219 C 101.160156 40.824219 101.644531 40.167969 101.644531 39.152344 C 101.644531 38.164062 101.160156 37.484375 99.035156 37.484375 L 96.332031 37.484375 Z M 96.332031 37.496094 " fill-opacity="1" fill-rule="nonzero"/><path fill="#454850" d="M 109.71875 44.984375 C 109.363281 44.984375 108.972656 45.007812 108.597656 45.03125 C 108.679688 44.210938 108.773438 43.042969 108.773438 40.753906 C 108.773438 38.878906 108.75 38.09375 108.703125 37.472656 L 105.847656 37.472656 C 105.363281 37.472656 105.019531 37.652344 104.699219 38.117188 L 104.558594 38.082031 L 104.808594 36.625 C 104.820312 36.578125 104.84375 36.578125 104.914062 36.578125 L 114.484375 36.578125 C 114.519531 36.578125 114.59375 36.578125 114.605469 36.625 L 114.851562 38.082031 L 114.710938 38.117188 C 114.378906 37.652344 114.050781 37.472656 113.566406 37.472656 L 110.707031 37.472656 C 110.671875 38.09375 110.636719 38.878906 110.636719 40.753906 C 110.636719 43.054688 110.746094 44.222656 110.816406 45.03125 C 110.460938 45.007812 110.082031 44.984375 109.71875 44.984375 Z M 109.71875 44.984375 " fill-opacity="1" fill-rule="nonzero"/><path fill="#454850" d="M 121.390625 36.316406 C 124.871094 36.316406 127.742188 37.902344 127.742188 40.667969 C 127.742188 43.339844 125.109375 45.320312 121.238281 45.320312 C 117.765625 45.320312 114.898438 43.722656 114.898438 40.929688 C 114.898438 38.234375 117.542969 36.316406 121.390625 36.316406 Z M 117.175781 40.789062 C 117.175781 43.136719 118.875 44.53125 121.320312 44.53125 C 123.621094 44.53125 125.460938 43.292969 125.460938 40.847656 C 125.460938 38.5 123.738281 37.089844 121.308594 37.089844 C 119.019531 37.089844 117.175781 38.320312 117.175781 40.789062 Z M 117.175781 40.789062 " fill-opacity="1" fill-rule="nonzero"/><path fill="#454850" d="M 129.839844 44.984375 C 129.488281 44.984375 129.097656 45.007812 128.742188 45.03125 C 128.8125 44.210938 128.921875 43.042969 128.921875 40.753906 C 128.921875 37.914062 128.824219 37.390625 128.742188 36.578125 C 129.285156 36.601562 129.914062 36.625 130.453125 36.625 C 130.984375 36.625 132.886719 36.578125 133.570312 36.578125 C 136.96875 36.578125 138.28125 37.210938 138.28125 39.152344 C 138.28125 40.574219 137.582031 41.289062 135.894531 41.585938 C 136.191406 41.824219 136.402344 42.125 136.59375 42.433594 C 137.289062 43.542969 137.644531 44.804688 138.777344 44.804688 C 139.1875 44.804688 139.542969 44.722656 139.933594 44.496094 L 140.015625 44.640625 C 139.53125 44.960938 138.882812 45.210938 137.878906 45.210938 C 134.21875 45.210938 135.425781 41.71875 132.96875 41.71875 L 130.820312 41.71875 C 130.832031 43.363281 130.914062 44.304688 130.984375 45.019531 C 130.609375 45.007812 130.21875 44.984375 129.839844 44.984375 Z M 130.855469 37.496094 C 130.820312 38.09375 130.785156 38.820312 130.785156 40.824219 L 133.558594 40.824219 C 135.683594 40.824219 136.167969 40.167969 136.167969 39.152344 C 136.167969 38.164062 135.683594 37.484375 133.558594 37.484375 L 130.855469 37.484375 Z M 130.855469 37.496094 " fill-opacity="1" fill-rule="nonzero"/><path fill="#454850" d="M 141.84375 44.984375 C 141.492188 44.984375 141.101562 45.007812 140.746094 45.03125 C 140.816406 44.210938 140.925781 43.042969 140.925781 40.753906 C 140.925781 37.914062 140.828125 37.390625 140.746094 36.578125 C 141.101562 36.601562 141.492188 36.625 141.84375 36.625 C 142.222656 36.625 142.601562 36.601562 142.964844 36.578125 C 142.882812 37.402344 142.789062 37.925781 142.789062 40.753906 C 142.789062 43.054688 142.894531 44.222656 142.964844 45.03125 C 142.601562 45.007812 142.210938 44.984375 141.84375 44.984375 Z M 141.84375 44.984375 " fill-opacity="1" fill-rule="nonzero"/><g clip-path="url(#fe1eb4a10c)"><path fill="#454850" d="M 151.558594 37.164062 C 153.152344 40.035156 154.332031 42.148438 156.292969 45.042969 C 155.703125 45.007812 155.359375 44.996094 155.003906 44.996094 C 154.652344 44.996094 154.285156 45.007812 153.71875 45.042969 C 153.363281 44.28125 152.988281 43.53125 152.585938 42.765625 L 146.96875 42.765625 C 146.519531 43.578125 146.070312 44.351562 145.726562 45.042969 C 145.550781 45.019531 145.230469 44.996094 144.914062 44.996094 C 144.59375 44.996094 144.277344 45.019531 144.097656 45.042969 C 145.703125 42.839844 147.863281 39.605469 149.363281 37.199219 L 149.328125 37.128906 C 149.164062 36.839844 148.9375 36.792969 148.417969 36.722656 L 148.417969 36.578125 C 148.796875 36.578125 149.363281 36.625 149.730469 36.625 C 150.046875 36.625 150.402344 36.578125 150.601562 36.578125 C 151.121094 36.578125 151.285156 36.675781 151.558594 37.164062 Z M 149.859375 37.996094 C 149.136719 39.140625 148.300781 40.488281 147.511719 41.835938 L 152.113281 41.835938 C 151.40625 40.585938 150.660156 39.320312 149.859375 37.996094 Z M 149.859375 37.996094 " fill-opacity="1" fill-rule="nonzero"/></g><g clip-path="url(#a3d1d383c2)"><path fill="#e8c547" d="M 22.601562 48.191406 C 21.941406 48.191406 21.289062 48.011719 20.699219 47.667969 L 17.5625 45.820312 L 14.421875 47.667969 C 13.832031 48.011719 13.171875 48.191406 12.519531 48.191406 C 11.472656 48.191406 10.480469 47.738281 9.734375 46.929688 C 9.074219 46.199219 8.707031 45.210938 8.707031 44.125 L 8.707031 37.617188 C 8.707031 36.671875 8.992188 35.792969 9.488281 35.136719 C 10.21875 34.167969 11.328125 33.621094 12.507812 33.621094 C 13.171875 33.621094 13.832031 33.800781 14.410156 34.144531 L 17.550781 35.996094 L 20.6875 34.144531 C 21.265625 33.800781 21.929688 33.621094 22.589844 33.621094 C 24.691406 33.621094 26.390625 35.363281 26.390625 37.496094 L 26.390625 44.125 C 26.390625 45.210938 26.023438 46.199219 25.363281 46.929688 C 24.640625 47.738281 23.652344 48.191406 22.601562 48.191406 Z M 17.550781 43.507812 L 21.679688 45.9375 C 22.425781 46.378906 23.332031 46.226562 23.933594 45.570312 C 24.265625 45.210938 24.441406 44.699219 24.441406 44.113281 L 24.441406 37.484375 C 24.441406 36.445312 23.617188 35.601562 22.601562 35.601562 C 22.28125 35.601562 21.964844 35.683594 21.691406 35.851562 L 17.5625 38.28125 L 13.429688 35.851562 C 12.652344 35.398438 11.613281 35.613281 11.046875 36.339844 C 10.808594 36.648438 10.667969 37.101562 10.667969 37.617188 L 10.667969 44.125 C 10.667969 44.710938 10.84375 45.222656 11.175781 45.582031 C 11.777344 46.238281 12.675781 46.390625 13.429688 45.949219 Z M 17.550781 43.507812 " fill-opacity="1" fill-rule="nonzero"/></g></svg>